<svg width="1015px" height="214px" viewBox="0 0 1015 214" version="1.1" xmlns="http://www.w3.org/2000/svg" xmlns:xlink="http://www.w3.org/1999/xlink">
  <desc>Created with Sketch.</desc>
  <defs>
      <radialGradient cx="0%" cy="14.525%" fx="0%" fy="14.525%" r="78.98%" gradientTransform="translate(0.000000,0.145250),scale(1.000000,0.860432),translate(-0.000000,-0.145250)" id="radialGradient-1">
          <stop stop-color="#F7DF1E" offset="0%"></stop>
          <stop stop-color="#F7DF00" offset="100%"></stop>
      </radialGradient>
  </defs>
  <g id="Page-1" stroke="none" stroke-width="1" fill="none" fill-rule="evenodd">
      <g id="Group-2">
          <g id="Group">
              <g id="logo-general">
                  <path d="M211.448,138.296 C206.744,138.296 202.472,137.768 198.632,136.712 C194.792,135.656 191.336,134.216 188.264,132.392 C185.192,130.568 182.528,128.384 180.272,125.84 C178.016,123.296 176.168,120.584 174.728,117.704 L191.144,108.2 C193.352,111.752 195.968,114.68 198.992,116.984 C202.016,119.288 206.024,120.44 211.016,120.44 C215.24,120.44 218.576,119.504 221.024,117.632 C223.472,115.76 224.696,113.384 224.696,110.504 C224.696,107.048 223.4,104.456 220.808,102.728 C218.216,101 214.616,99.128 210.008,97.112 L204.968,94.952 C201.32,93.416 198.008,91.736 195.032,89.912 C192.056,88.088 189.512,85.976 187.4,83.576 C185.288,81.176 183.656,78.44 182.504,75.368 C181.352,72.296 180.776,68.696 180.776,64.568 C180.776,60.824 181.472,57.32 182.864,54.056 C184.256,50.792 186.224,47.96 188.768,45.56 C191.312,43.16 194.408,41.288 198.056,39.944 C201.704,38.6 205.784,37.928 210.296,37.928 C216.728,37.928 222.272,39.152 226.928,41.6 C231.584,44.048 235.592,48.2 238.952,54.056 L223.256,64.136 C221.528,61.064 219.656,58.856 217.64,57.512 C215.624,56.168 213.176,55.496 210.296,55.496 C207.32,55.496 204.968,56.312 203.24,57.944 C201.512,59.576 200.648,61.64 200.648,64.136 C200.648,67.208 201.632,69.536 203.6,71.12 C205.568,72.704 208.712,74.456 213.032,76.376 L218.072,78.536 C222.392,80.36 226.208,82.256 229.52,84.224 C232.832,86.192 235.616,88.4 237.872,90.848 C240.115941,93.2765942 241.875455,96.111367 243.056,99.2 C244.256,102.32 244.856,105.992 244.856,110.216 C244.856,114.728 244.016,118.736 242.336,122.24 C240.656,125.744 238.328,128.696 235.352,131.096 C232.376,133.496 228.848,135.296 224.768,136.496 C220.688,137.696 216.248,138.296 211.448,138.296 L211.448,138.296 Z M307.64,138.296 C300.632,138.296 294.056,137.024 287.912,134.48 C281.768,131.936 276.44,128.432 271.928,123.968 C267.416,119.504 263.84,114.2 261.2,108.056 C258.56,101.912 257.24,95.24 257.24,88.04 C257.24,80.84 258.56,74.168 261.2,68.024 C263.84,61.88 267.416,56.576 271.928,52.112 C276.44,47.648 281.768,44.168 287.912,41.672 C294.056,39.176 300.632,37.928 307.64,37.928 C316.568,37.928 324.224,39.536 330.608,42.752 C336.992,45.968 342.392,51.032 346.808,57.944 L331.4,68.888 C329.096,65.144 325.976,62.072 322.04,59.672 C318.104,57.272 313.304,56.072 307.64,56.072 C303.224,56.072 299.192,56.888 295.544,58.52 C291.896,60.152 288.776,62.384 286.184,65.216 C283.592,68.048 281.576,71.408 280.136,75.296 C278.696,79.184 277.976,83.432 277.976,88.04 C277.976,92.648 278.696,96.92 280.136,100.856 C281.576,104.792 283.592,108.2 286.184,111.08 C288.776,113.96 291.896,116.216 295.544,117.848 C299.192,119.48 303.224,120.296 307.64,120.296 C313.976,120.296 319.064,118.952 322.904,116.264 C326.744,113.576 330.056,110.12 332.84,105.896 L348.536,116.696 C344.216,123.32 338.696,128.576 331.976,132.464 C325.256,136.352 317.144,138.296 307.64,138.296 L307.64,138.296 Z M390.008,95.096 C398.264,95.096 404.264,93.656 408.008,90.776 C411.752,87.896 413.624,83 413.624,76.088 C413.624,69.176 411.728,64.232 407.936,61.256 C404.144,58.28 398.168,56.792 390.008,56.792 L383.672,56.792 L383.672,95.096 L390.008,95.096 Z M435.8,137 L412.472,137 L396.344,112.232 C394.424,112.52 392.504,112.664 390.584,112.664 L383.672,112.664 L383.672,137 L363.512,137 L363.512,39.08 L390.584,39.08 C404.312,39.08 415.04,42.248 422.768,48.584 C430.496,54.92 434.36,64.088 434.36,76.088 C434.36,83.768 432.728,90.056 429.464,94.952 C426.2,99.848 421.544,103.688 415.496,106.472 L435.8,137 Z M452.36,39.08 L472.52,39.08 L472.52,137 L452.36,137 L452.36,39.08 Z M519.752,96.968 C528.008,96.968 534.008,95.312 537.752,92 C541.496,88.688 543.368,83.672 543.368,76.952 C543.368,70.136 541.472,65.072 537.68,61.76 C533.888,58.448 527.912,56.792 519.752,56.792 L513.416,56.792 L513.416,96.968 L519.752,96.968 L519.752,96.968 Z M493.256,39.08 L520.328,39.08 C527.144,39.08 533.264,39.944 538.688,41.672 C544.112,43.4 548.696,45.896 552.44,49.16 C556.184,52.424 559.064,56.408 561.08,61.112 C563.096,65.816 564.104,71.096 564.104,76.952 C564.104,82.904 563.096,88.208 561.08,92.864 C559.064,97.52 556.184,101.456 552.44,104.672 C548.696,107.888 544.112,110.36 538.688,112.088 C533.264,113.816 527.144,114.68 520.328,114.68 L513.416,114.68 L513.416,137 L493.256,137 L493.256,39.08 L493.256,39.08 Z M600.68,56.792 L572.744,56.792 L572.744,39.08 L648.776,39.08 L648.776,56.792 L620.84,56.792 L620.84,137 L600.68,137 L600.68,56.792 L600.68,56.792 Z" id="Shape" fill="#F7DF1E"></path>
                  <polygon id="x" fill="url(#radialGradient-1)" points="74.176 0 150 45.742 150 131.065 74.176 174.331 0 131.065 0 39.98"></polygon>
              </g>
          </g>
          <path d="M720.699988,138.296 C713.691953,138.296 707.116019,137.024013 700.971988,134.48 C694.827957,131.935987 689.50001,128.432022 684.987988,123.968 C680.475965,119.503978 676.900001,114.200031 674.259988,108.056 C671.619975,101.911969 670.299988,95.240036 670.299988,88.04 C670.299988,80.839964 671.619975,74.1680307 674.259988,68.024 C676.900001,61.8799693 680.475965,56.5760223 684.987988,52.112 C689.50001,47.6479777 694.827957,44.1680125 700.971988,41.672 C707.116019,39.1759875 713.691953,37.928 720.699988,37.928 C729.628032,37.928 737.283956,39.5359839 743.667988,42.752 C750.05202,45.9680161 755.451966,51.0319654 759.867988,57.944 L744.459988,68.888 C742.155976,65.1439813 739.036007,62.072012 735.099988,59.672 C731.163968,57.271988 726.364016,56.072 720.699988,56.072 C716.283966,56.072 712.252006,56.8879918 708.603988,58.52 C704.95597,60.1520082 701.836001,62.3839858 699.243988,65.216 C696.651975,68.0480142 694.635995,71.4079806 693.195988,75.296 C691.755981,79.1840194 691.035988,83.431977 691.035988,88.04 C691.035988,92.648023 691.755981,96.9199803 693.195988,100.856 C694.635995,104.79202 696.651975,108.199986 699.243988,111.08 C701.836001,113.960014 704.95597,116.215992 708.603988,117.848 C712.252006,119.480008 716.283966,120.296 720.699988,120.296 C727.036019,120.296 732.123969,118.952013 735.963988,116.264 C739.804007,113.575987 743.115974,110.120021 745.899988,105.896 L761.595988,116.696 C757.275966,123.320033 751.756021,128.575981 745.035988,132.464 C738.315954,136.352019 730.204035,138.296 720.699988,138.296 Z M821.643988,109.064 L814.587988,92.072 C813.819984,90.3439914 813.099991,88.4720101 812.427988,86.456 C811.755984,84.4399899 811.131991,82.5200091 810.555988,80.696 C809.883984,78.6799899 809.259991,76.6160106 808.683988,74.504 C808.011984,76.6160106 807.387991,78.6799899 806.811988,80.696 C806.235985,82.5200091 805.635991,84.4399899 805.011988,86.456 C804.387985,88.4720101 803.691992,90.3439914 802.923988,92.072 L795.867988,109.064 L821.643988,109.064 Z M808.107988,38.216 L809.835988,38.216 L854.619988,137 L833.451988,137 L828.843988,125.912 L789.099988,125.912 L784.491988,137 L765.051988,137 L808.107988,38.216 Z M895.371988,138.296 C890.667964,138.296 886.396007,137.768005 882.555988,136.712 C878.715969,135.655995 875.260003,134.216009 872.187988,132.392 C869.115972,130.567991 866.451999,128.384013 864.195988,125.84 C861.939977,123.295987 860.091995,120.584014 858.651988,117.704 L875.067988,108.2 C877.275999,111.752018 879.891973,114.679988 882.915988,116.984 C885.940003,119.288012 889.947963,120.44 894.939988,120.44 C899.164009,120.44 902.499976,119.504009 904.947988,117.632 C907.396,115.759991 908.619988,113.384014 908.619988,110.504 C908.619988,107.047983 907.324001,104.456009 904.731988,102.728 C902.139975,100.999991 898.540011,99.1280101 893.931988,97.112 L888.891988,94.952 C885.24397,93.4159923 881.932003,91.7360091 878.955988,89.912 C875.979973,88.0879909 873.435998,85.976012 871.323988,83.576 C869.211977,81.175988 867.579994,78.4400154 866.427988,75.368 C865.275982,72.2959846 864.699988,68.6960206 864.699988,64.568 C864.699988,60.8239813 865.395981,57.3200163 866.787988,54.056 C868.179995,50.7919837 870.147975,47.960012 872.691988,45.56 C875.236001,43.159988 878.33197,41.2880067 881.979988,39.944 C885.628006,38.5999933 889.707965,37.928 894.219988,37.928 C900.65202,37.928 906.195965,39.1519878 910.851988,41.6 C915.508011,44.0480122 919.515971,48.1999707 922.875988,54.056 L907.179988,64.136 C905.451979,61.0639846 903.579998,58.8560067 901.563988,57.512 C899.547978,56.1679933 897.100002,55.496 894.219988,55.496 C891.243973,55.496 888.891996,56.3119918 887.163988,57.944 C885.435979,59.5760082 884.571988,61.6399875 884.571988,64.136 C884.571988,67.2080154 885.555978,69.5359921 887.523988,71.12 C889.491998,72.7040079 892.635966,74.4559904 896.955988,76.376 L901.995988,78.536 C906.316009,80.3600091 910.131971,82.2559902 913.443988,84.224 C916.756004,86.1920098 919.539977,88.3999878 921.795988,90.848 C924.051999,93.2960122 925.779982,96.0799844 926.979988,99.2 C928.179994,102.320016 928.779988,105.991979 928.779988,110.216 C928.779988,114.728023 927.939996,118.735982 926.259988,122.24 C924.579979,125.744018 922.252003,128.695988 919.275988,131.096 C916.299973,133.496012 912.772008,135.295994 908.691988,136.496 C904.611967,137.696006 900.172012,138.296 895.371988,138.296 Z M963.915988,56.792 L935.979988,56.792 L935.979988,39.08 L1012.01199,39.08 L1012.01199,56.792 L984.075988,56.792 L984.075988,137 L963.915988,137 L963.915988,56.792 Z" id="CAST" stroke="#F8E71C" stroke-width="4" fill-opacity="0" fill="#000000"></path>
          <path d="M192.04,184.6 L195.08,184.6 L206.68,213 L202.84,213 L199.48,204.68 L187.56,204.68 L184.24,213 L180.4,213 L192.04,184.6 Z M198.68,201.88 L193.56,188.76 L188.28,201.88 L198.68,201.88 Z M219.36,213 L219.36,184.6 L231.2,184.6 C232.45334,184.6 233.606661,184.859997 234.66,185.38 C235.713339,185.900003 236.619996,186.593329 237.38,187.46 C238.140004,188.326671 238.733331,189.299995 239.16,190.38 C239.586669,191.460005 239.8,192.559994 239.8,193.68 C239.8,194.853339 239.600002,195.986661 239.2,197.08 C238.799998,198.173339 238.233337,199.146662 237.5,200 C236.766663,200.853338 235.886672,201.533331 234.86,202.04 C233.833328,202.546669 232.69334,202.8 231.44,202.8 L222.96,202.8 L222.96,213 L219.36,213 Z M222.96,199.6 L231.24,199.6 C231.98667,199.6 232.659997,199.446668 233.26,199.14 C233.860003,198.833332 234.373331,198.406669 234.8,197.86 C235.226669,197.313331 235.559999,196.680004 235.8,195.96 C236.040001,195.239996 236.16,194.480004 236.16,193.68 C236.16,192.853329 236.020001,192.080004 235.74,191.36 C235.459999,190.639996 235.086669,190.013336 234.62,189.48 C234.153331,188.946664 233.60667,188.533335 232.98,188.24 C232.35333,187.946665 231.693337,187.8 231,187.8 L222.96,187.8 L222.96,199.6 Z M255.8,213.2 C253.79999,213.2 251.980008,212.793337 250.34,211.98 C248.699992,211.166663 247.293339,210.086673 246.12,208.74 C244.946661,207.393327 244.040003,205.853342 243.4,204.12 C242.759997,202.386658 242.44,200.613342 242.44,198.8 C242.44,196.906657 242.779997,195.093342 243.46,193.36 C244.140003,191.626658 245.079994,190.09334 246.28,188.76 C247.480006,187.42666 248.899992,186.366671 250.54,185.58 C252.180008,184.793329 253.95999,184.4 255.88,184.4 C257.88001,184.4 259.693325,184.819996 261.32,185.66 C262.946675,186.500004 264.346661,187.599993 265.52,188.96 C266.693339,190.320007 267.599997,191.859991 268.24,193.58 C268.880003,195.300009 269.2,197.053324 269.2,198.84 C269.2,200.733343 268.860003,202.546658 268.18,204.28 C267.499997,206.013342 266.566673,207.539993 265.38,208.86 C264.193327,210.180007 262.780008,211.233329 261.14,212.02 C259.499992,212.806671 257.72001,213.2 255.8,213.2 Z M246.08,198.8 C246.08,200.240007 246.313331,201.633327 246.78,202.98 C247.246669,204.326673 247.906662,205.519995 248.76,206.56 C249.613338,207.600005 250.639994,208.426664 251.84,209.04 C253.040006,209.653336 254.373326,209.96 255.84,209.96 C257.360008,209.96 258.719994,209.633337 259.92,208.98 C261.120006,208.326663 262.139996,207.473339 262.98,206.42 C263.820004,205.366661 264.459998,204.17334 264.9,202.84 C265.340002,201.50666 265.56,200.160007 265.56,198.8 C265.56,197.359993 265.326669,195.966673 264.86,194.62 C264.393331,193.273327 263.726671,192.086672 262.86,191.06 C261.993329,190.033328 260.966673,189.213336 259.78,188.6 C258.593327,187.986664 257.280007,187.68 255.84,187.68 C254.319992,187.68 252.960006,187.999997 251.76,188.64 C250.559994,189.280003 249.540004,190.119995 248.7,191.16 C247.859996,192.200005 247.213336,193.38666 246.76,194.72 C246.306664,196.05334 246.08,197.413326 246.08,198.8 Z M274.2,213 L274.2,184.6 L284.04,184.6 C286.306678,184.6 288.299991,184.97333 290.02,185.72 C291.740009,186.46667 293.173328,187.479994 294.32,188.76 C295.466672,190.040006 296.326664,191.539991 296.9,193.26 C297.473336,194.980009 297.76,196.813324 297.76,198.76 C297.76,200.920011 297.440003,202.873325 296.8,204.62 C296.159997,206.366675 295.240006,207.859994 294.04,209.1 C292.839994,210.340006 291.393342,211.299997 289.7,211.98 C288.006658,212.660003 286.12001,213 284.04,213 L274.2,213 Z M294.12,198.76 C294.12,197.159992 293.900002,195.686673 293.46,194.34 C293.019998,192.993327 292.366671,191.840005 291.5,190.88 C290.633329,189.919995 289.57334,189.166669 288.32,188.62 C287.06666,188.073331 285.640008,187.8 284.04,187.8 L277.8,187.8 L277.8,209.8 L284.04,209.8 C285.666675,209.8 287.113327,209.520003 288.38,208.96 C289.646673,208.399997 290.699996,207.626672 291.54,206.64 C292.380004,205.653328 293.019998,204.486673 293.46,203.14 C293.900002,201.793327 294.12,200.333341 294.12,198.76 Z M301,198.6 C301,196.893325 301.299997,195.193342 301.9,193.5 C302.500003,191.806658 303.379994,190.286673 304.54,188.94 C305.700006,187.593327 307.119992,186.506671 308.8,185.68 C310.480008,184.853329 312.386656,184.44 314.52,184.44 C317.053346,184.44 319.226658,185.013328 321.04,186.16 C322.853342,187.306672 324.199996,188.799991 325.08,190.64 L322.24,192.48 C321.813331,191.573329 321.300003,190.813336 320.7,190.2 C320.099997,189.586664 319.44667,189.093335 318.74,188.72 C318.03333,188.346665 317.30667,188.080001 316.56,187.92 C315.81333,187.759999 315.080004,187.68 314.36,187.68 C312.786659,187.68 311.393339,188.006663 310.18,188.66 C308.966661,189.313337 307.946671,190.166661 307.12,191.22 C306.293329,192.273339 305.673335,193.459993 305.26,194.78 C304.846665,196.100007 304.64,197.42666 304.64,198.76 C304.64,200.253341 304.886664,201.673327 305.38,203.02 C305.873336,204.366673 306.559996,205.559995 307.44,206.6 C308.320004,207.640005 309.359994,208.466664 310.56,209.08 C311.760006,209.693336 313.06666,210 314.48,210 C315.22667,210 315.993329,209.906668 316.78,209.72 C317.566671,209.533332 318.319996,209.233335 319.04,208.82 C319.760004,208.406665 320.43333,207.88667 321.06,207.26 C321.68667,206.63333 322.199998,205.880004 322.6,205 L325.6,206.64 C325.146664,207.706672 324.513337,208.646663 323.7,209.46 C322.886663,210.273337 321.966672,210.959997 320.94,211.52 C319.913328,212.080003 318.826672,212.506665 317.68,212.8 C316.533328,213.093335 315.413339,213.24 314.32,213.24 C312.373324,213.24 310.586675,212.813338 308.96,211.96 C307.333325,211.106662 305.926673,209.99334 304.74,208.62 C303.553327,207.24666 302.633337,205.686675 301.98,203.94 C301.326663,202.193325 301,200.413342 301,198.6 Z M338.36,184.6 L341.4,184.6 L353,213 L349.16,213 L345.8,204.68 L333.88,204.68 L330.56,213 L326.72,213 L338.36,184.6 Z M345,201.88 L339.88,188.76 L334.6,201.88 L345,201.88 Z M373.08,190.56 C372.759998,190.186665 372.333336,189.826668 371.8,189.48 C371.266664,189.133332 370.66667,188.820001 370,188.54 C369.33333,188.259999 368.606671,188.033334 367.82,187.86 C367.033329,187.686666 366.213338,187.6 365.36,187.6 C363.146656,187.6 361.526672,188.013329 360.5,188.84 C359.473328,189.666671 358.96,190.799993 358.96,192.24 C358.96,193.013337 359.106665,193.653331 359.4,194.16 C359.693335,194.666669 360.15333,195.099998 360.78,195.46 C361.40667,195.820002 362.186662,196.133332 363.12,196.4 C364.053338,196.666668 365.159994,196.946665 366.44,197.24 C367.906674,197.560002 369.233327,197.926665 370.42,198.34 C371.606673,198.753335 372.619996,199.266664 373.46,199.88 C374.300004,200.493336 374.939998,201.239996 375.38,202.12 C375.820002,203.000004 376.04,204.079994 376.04,205.36 C376.04,206.720007 375.773336,207.899995 375.24,208.9 C374.706664,209.900005 373.980005,210.726663 373.06,211.38 C372.139995,212.033337 371.05334,212.513332 369.8,212.82 C368.54666,213.126668 367.186674,213.28 365.72,213.28 C363.533322,213.28 361.46001,212.940003 359.5,212.26 C357.53999,211.579997 355.760008,210.586673 354.16,209.28 L355.88,206.24 C356.306669,206.693336 356.859997,207.146664 357.54,207.6 C358.220003,208.053336 358.993329,208.459998 359.86,208.82 C360.726671,209.180002 361.659995,209.473332 362.66,209.7 C363.660005,209.926668 364.706661,210.04 365.8,210.04 C367.826677,210.04 369.399994,209.680004 370.52,208.96 C371.640006,208.239996 372.2,207.160007 372.2,205.72 C372.2,204.919996 372.020002,204.246669 371.66,203.7 C371.299998,203.153331 370.773337,202.680002 370.08,202.28 C369.386663,201.879998 368.526672,201.526668 367.5,201.22 C366.473328,200.913332 365.306673,200.600002 364,200.28 C362.559993,199.933332 361.293339,199.560002 360.2,199.16 C359.106661,198.759998 358.193337,198.280003 357.46,197.72 C356.726663,197.159997 356.173335,196.480004 355.8,195.68 C355.426665,194.879996 355.24,193.920006 355.24,192.8 C355.24,191.439993 355.493331,190.240005 356,189.2 C356.506669,188.159995 357.213329,187.280004 358.12,186.56 C359.026671,185.839996 360.10666,185.300002 361.36,184.94 C362.61334,184.579998 363.973326,184.4 365.44,184.4 C367.36001,184.4 369.093326,184.69333 370.64,185.28 C372.186674,185.86667 373.559994,186.653328 374.76,187.64 L373.08,190.56 Z M401.24,187.8 L391.44,187.8 L391.44,213 L387.84,213 L387.84,187.8 L378.04,187.8 L378.04,184.6 L401.24,184.6 L401.24,187.8 Z M421.64,184.6 L424.68,184.6 L436.28,213 L432.44,213 L429.08,204.68 L417.16,204.68 L413.84,213 L410,213 L421.64,184.6 Z M428.28,201.88 L423.16,188.76 L417.88,201.88 L428.28,201.88 Z M461.88,205.68 C461.88,206.773339 461.660002,207.773329 461.22,208.68 C460.779998,209.586671 460.180004,210.359997 459.42,211 C458.659996,211.640003 457.780005,212.133332 456.78,212.48 C455.779995,212.826668 454.706672,213 453.56,213 L440.08,213 L440.08,184.6 L454.2,184.6 C455.186672,184.6 456.079996,184.813331 456.88,185.24 C457.680004,185.666669 458.359997,186.219997 458.92,186.9 C459.480003,187.580003 459.913332,188.353329 460.22,189.22 C460.526668,190.086671 460.68,190.959996 460.68,191.84 C460.68,193.25334 460.32667,194.559994 459.62,195.76 C458.91333,196.960006 457.906673,197.85333 456.6,198.44 C458.226675,198.920002 459.513329,199.80666 460.46,201.1 C461.406671,202.39334 461.88,203.919991 461.88,205.68 Z M458.24,205.04 C458.24,204.399997 458.126668,203.780003 457.9,203.18 C457.673332,202.579997 457.366669,202.053336 456.98,201.6 C456.593331,201.146664 456.133336,200.786668 455.6,200.52 C455.066664,200.253332 454.480003,200.12 453.84,200.12 L443.68,200.12 L443.68,209.88 L453.56,209.88 C454.22667,209.88 454.839997,209.746668 455.4,209.48 C455.960003,209.213332 456.453331,208.860002 456.88,208.42 C457.306669,207.979998 457.639999,207.46667 457.88,206.88 C458.120001,206.29333 458.24,205.680003 458.24,205.04 Z M443.68,187.72 L443.68,197.2 L452.72,197.2 C453.360003,197.2 453.946664,197.073335 454.48,196.82 C455.013336,196.566665 455.473331,196.226669 455.86,195.8 C456.246669,195.373331 456.553332,194.873336 456.78,194.3 C457.006668,193.726664 457.12,193.120003 457.12,192.48 C457.12,191.81333 457.013334,191.18667 456.8,190.6 C456.586666,190.01333 456.300002,189.506669 455.94,189.08 C455.579998,188.653331 455.140003,188.320001 454.62,188.08 C454.099997,187.839999 453.54667,187.72 452.96,187.72 L443.68,187.72 Z M478.44,213.2 C476.43999,213.2 474.620008,212.793337 472.98,211.98 C471.339992,211.166663 469.933339,210.086673 468.76,208.74 C467.586661,207.393327 466.680003,205.853342 466.04,204.12 C465.399997,202.386658 465.08,200.613342 465.08,198.8 C465.08,196.906657 465.419997,195.093342 466.1,193.36 C466.780003,191.626658 467.719994,190.09334 468.92,188.76 C470.120006,187.42666 471.539992,186.366671 473.18,185.58 C474.820008,184.793329 476.59999,184.4 478.52,184.4 C480.52001,184.4 482.333325,184.819996 483.96,185.66 C485.586675,186.500004 486.986661,187.599993 488.16,188.96 C489.333339,190.320007 490.239997,191.859991 490.88,193.58 C491.520003,195.300009 491.84,197.053324 491.84,198.84 C491.84,200.733343 491.500003,202.546658 490.82,204.28 C490.139997,206.013342 489.206673,207.539993 488.02,208.86 C486.833327,210.180007 485.420008,211.233329 483.78,212.02 C482.139992,212.806671 480.36001,213.2 478.44,213.2 Z M468.72,198.8 C468.72,200.240007 468.953331,201.633327 469.42,202.98 C469.886669,204.326673 470.546662,205.519995 471.4,206.56 C472.253338,207.600005 473.279994,208.426664 474.48,209.04 C475.680006,209.653336 477.013326,209.96 478.48,209.96 C480.000008,209.96 481.359994,209.633337 482.56,208.98 C483.760006,208.326663 484.779996,207.473339 485.62,206.42 C486.460004,205.366661 487.099998,204.17334 487.54,202.84 C487.980002,201.50666 488.2,200.160007 488.2,198.8 C488.2,197.359993 487.966669,195.966673 487.5,194.62 C487.033331,193.273327 486.366671,192.086672 485.5,191.06 C484.633329,190.033328 483.606673,189.213336 482.42,188.6 C481.233327,187.986664 479.920007,187.68 478.48,187.68 C476.959992,187.68 475.600006,187.999997 474.4,188.64 C473.199994,189.280003 472.180004,190.119995 471.34,191.16 C470.499996,192.200005 469.853336,193.38666 469.4,194.72 C468.946664,196.05334 468.72,197.413326 468.72,198.8 Z M508.52,209.96 C510.173342,209.96 511.546661,209.640003 512.64,209 C513.733339,208.359997 514.606663,207.526672 515.26,206.5 C515.913337,205.473328 516.373332,204.300007 516.64,202.98 C516.906668,201.659993 517.04,200.320007 517.04,198.96 L517.04,184.6 L520.64,184.6 L520.64,198.96 C520.64,200.88001 520.420002,202.699991 519.98,204.42 C519.539998,206.140009 518.840005,207.653327 517.88,208.96 C516.919995,210.266673 515.673341,211.299996 514.14,212.06 C512.606659,212.820004 510.746678,213.2 508.56,213.2 C506.293322,213.2 504.386674,212.800004 502.84,212 C501.293326,211.199996 500.046671,210.140007 499.1,208.82 C498.153329,207.499993 497.473335,205.980009 497.06,204.26 C496.646665,202.539991 496.44,200.773342 496.44,198.96 L496.44,184.6 L500.04,184.6 L500.04,198.96 C500.04,200.37334 500.179999,201.739993 500.46,203.06 C500.740001,204.380007 501.206663,205.546662 501.86,206.56 C502.513337,207.573338 503.379995,208.39333 504.46,209.02 C505.540005,209.64667 506.893325,209.96 508.52,209.96 Z M547.52,187.8 L537.72,187.8 L537.72,213 L534.12,213 L534.12,187.8 L524.32,187.8 L524.32,184.6 L547.52,184.6 L547.52,187.8 Z M557.44,208.76 C557.973336,209.133335 558.693329,209.466665 559.6,209.76 C560.506671,210.053335 561.533328,210.2 562.68,210.2 C564.040007,210.2 565.119996,209.960002 565.92,209.48 C566.720004,208.999998 567.326665,208.286671 567.74,207.34 C568.153335,206.393329 568.426666,205.226674 568.56,203.84 C568.693334,202.453326 568.76,200.853342 568.76,199.04 L568.76,184.6 L572.36,184.6 L572.36,199.04 C572.36,201.200011 572.260001,203.166658 572.06,204.94 C571.859999,206.713342 571.420003,208.22666 570.74,209.48 C570.059997,210.73334 569.086673,211.706663 567.82,212.4 C566.553327,213.093337 564.840011,213.44 562.68,213.44 C560.279988,213.44 558.226675,212.853339 556.52,211.68 L557.44,208.76 Z M586.8,184.6 L589.84,184.6 L601.44,213 L597.6,213 L594.24,204.68 L582.32,204.68 L579,213 L575.16,213 L586.8,184.6 Z M593.44,201.88 L588.32,188.76 L583.04,201.88 L593.44,201.88 Z M603.72,184.6 L613.12,208.48 L622.48,184.6 L626.28,184.6 L614.68,213 L611.56,213 L599.92,184.6 L603.72,184.6 Z M636.44,184.6 L639.48,184.6 L651.08,213 L647.24,213 L643.88,204.68 L631.96,204.68 L628.64,213 L624.8,213 L636.44,184.6 Z M643.08,201.88 L637.96,188.76 L632.68,201.88 L643.08,201.88 Z M671.16,190.56 C670.839998,190.186665 670.413336,189.826668 669.88,189.48 C669.346664,189.133332 668.74667,188.820001 668.08,188.54 C667.41333,188.259999 666.686671,188.033334 665.9,187.86 C665.113329,187.686666 664.293338,187.6 663.44,187.6 C661.226656,187.6 659.606672,188.013329 658.58,188.84 C657.553328,189.666671 657.04,190.799993 657.04,192.24 C657.04,193.013337 657.186665,193.653331 657.48,194.16 C657.773335,194.666669 658.23333,195.099998 658.86,195.46 C659.48667,195.820002 660.266662,196.133332 661.2,196.4 C662.133338,196.666668 663.239994,196.946665 664.52,197.24 C665.986674,197.560002 667.313327,197.926665 668.5,198.34 C669.686673,198.753335 670.699996,199.266664 671.54,199.88 C672.380004,200.493336 673.019998,201.239996 673.46,202.12 C673.900002,203.000004 674.12,204.079994 674.12,205.36 C674.12,206.720007 673.853336,207.899995 673.32,208.9 C672.786664,209.900005 672.060005,210.726663 671.14,211.38 C670.219995,212.033337 669.13334,212.513332 667.88,212.82 C666.62666,213.126668 665.266674,213.28 663.8,213.28 C661.613322,213.28 659.54001,212.940003 657.58,212.26 C655.61999,211.579997 653.840008,210.586673 652.24,209.28 L653.96,206.24 C654.386669,206.693336 654.939997,207.146664 655.62,207.6 C656.300003,208.053336 657.073329,208.459998 657.94,208.82 C658.806671,209.180002 659.739995,209.473332 660.74,209.7 C661.740005,209.926668 662.786661,210.04 663.88,210.04 C665.906677,210.04 667.479994,209.680004 668.6,208.96 C669.720006,208.239996 670.28,207.160007 670.28,205.72 C670.28,204.919996 670.100002,204.246669 669.74,203.7 C669.379998,203.153331 668.853337,202.680002 668.16,202.28 C667.466663,201.879998 666.606672,201.526668 665.58,201.22 C664.553328,200.913332 663.386673,200.600002 662.08,200.28 C660.639993,199.933332 659.373339,199.560002 658.28,199.16 C657.186661,198.759998 656.273337,198.280003 655.54,197.72 C654.806663,197.159997 654.253335,196.480004 653.88,195.68 C653.506665,194.879996 653.32,193.920006 653.32,192.8 C653.32,191.439993 653.573331,190.240005 654.08,189.2 C654.586669,188.159995 655.293329,187.280004 656.2,186.56 C657.106671,185.839996 658.18666,185.300002 659.44,184.94 C660.69334,184.579998 662.053326,184.4 663.52,184.4 C665.44001,184.4 667.173326,184.69333 668.72,185.28 C670.266674,185.86667 671.639994,186.653328 672.84,187.64 L671.16,190.56 Z M677,198.6 C677,196.893325 677.299997,195.193342 677.9,193.5 C678.500003,191.806658 679.379994,190.286673 680.54,188.94 C681.700006,187.593327 683.119992,186.506671 684.8,185.68 C686.480008,184.853329 688.386656,184.44 690.52,184.44 C693.053346,184.44 695.226658,185.013328 697.04,186.16 C698.853342,187.306672 700.199996,188.799991 701.08,190.64 L698.24,192.48 C697.813331,191.573329 697.300003,190.813336 696.7,190.2 C696.099997,189.586664 695.44667,189.093335 694.74,188.72 C694.03333,188.346665 693.30667,188.080001 692.56,187.92 C691.81333,187.759999 691.080004,187.68 690.36,187.68 C688.786659,187.68 687.393339,188.006663 686.18,188.66 C684.966661,189.313337 683.946671,190.166661 683.12,191.22 C682.293329,192.273339 681.673335,193.459993 681.26,194.78 C680.846665,196.100007 680.64,197.42666 680.64,198.76 C680.64,200.253341 680.886664,201.673327 681.38,203.02 C681.873336,204.366673 682.559996,205.559995 683.44,206.6 C684.320004,207.640005 685.359994,208.466664 686.56,209.08 C687.760006,209.693336 689.06666,210 690.48,210 C691.22667,210 691.993329,209.906668 692.78,209.72 C693.566671,209.533332 694.319996,209.233335 695.04,208.82 C695.760004,208.406665 696.43333,207.88667 697.06,207.26 C697.68667,206.63333 698.199998,205.880004 698.6,205 L701.6,206.64 C701.146664,207.706672 700.513337,208.646663 699.7,209.46 C698.886663,210.273337 697.966672,210.959997 696.94,211.52 C695.913328,212.080003 694.826672,212.506665 693.68,212.8 C692.533328,213.093335 691.413339,213.24 690.32,213.24 C688.373324,213.24 686.586675,212.813338 684.96,211.96 C683.333325,211.106662 681.926673,209.99334 680.74,208.62 C679.553327,207.24666 678.633337,205.686675 677.98,203.94 C677.326663,202.193325 677,200.413342 677,198.6 Z M706.12,213 L706.12,184.6 L718.28,184.6 C719.53334,184.6 720.686661,184.859997 721.74,185.38 C722.793339,185.900003 723.699996,186.593329 724.46,187.46 C725.220004,188.326671 725.813331,189.299995 726.24,190.38 C726.666669,191.460005 726.88,192.559994 726.88,193.68 C726.88,194.666672 726.740001,195.619995 726.46,196.54 C726.179999,197.460005 725.780003,198.29333 725.26,199.04 C724.739997,199.78667 724.113337,200.426664 723.38,200.96 C722.646663,201.493336 721.826671,201.879999 720.92,202.12 L727.8,213 L723.72,213 L717.24,202.8 L709.72,202.8 L709.72,213 L706.12,213 Z M709.72,199.6 L718.32,199.6 C719.06667,199.6 719.739997,199.440002 720.34,199.12 C720.940003,198.799998 721.453331,198.366669 721.88,197.82 C722.306669,197.273331 722.639999,196.640004 722.88,195.92 C723.120001,195.199996 723.24,194.453337 723.24,193.68 C723.24,192.879996 723.100001,192.12667 722.82,191.42 C722.539999,190.71333 722.166669,190.086669 721.7,189.54 C721.233331,188.993331 720.68667,188.566668 720.06,188.26 C719.43333,187.953332 718.773337,187.8 718.08,187.8 L709.72,187.8 L709.72,199.6 Z M732.4,213 L732.4,184.6 L736,184.6 L736,213 L732.4,213 Z M742.8,213 L742.8,184.6 L754.64,184.6 C755.89334,184.6 757.046661,184.859997 758.1,185.38 C759.153339,185.900003 760.059996,186.593329 760.82,187.46 C761.580004,188.326671 762.173331,189.299995 762.6,190.38 C763.026669,191.460005 763.24,192.559994 763.24,193.68 C763.24,194.853339 763.040002,195.986661 762.64,197.08 C762.239998,198.173339 761.673337,199.146662 760.94,200 C760.206663,200.853338 759.326672,201.533331 758.3,202.04 C757.273328,202.546669 756.13334,202.8 754.88,202.8 L746.4,202.8 L746.4,213 L742.8,213 Z M746.4,199.6 L754.68,199.6 C755.42667,199.6 756.099997,199.446668 756.7,199.14 C757.300003,198.833332 757.813331,198.406669 758.24,197.86 C758.666669,197.313331 758.999999,196.680004 759.24,195.96 C759.480001,195.239996 759.6,194.480004 759.6,193.68 C759.6,192.853329 759.460001,192.080004 759.18,191.36 C758.899999,190.639996 758.526669,190.013336 758.06,189.48 C757.593331,188.946664 757.04667,188.533335 756.42,188.24 C755.79333,187.946665 755.133337,187.8 754.44,187.8 L746.4,187.8 L746.4,199.6 Z M788.2,187.8 L778.4,187.8 L778.4,213 L774.8,213 L774.8,187.8 L765,187.8 L765,184.6 L788.2,184.6 L788.2,187.8 Z" id="A-PODCAST-ABOUT-JAVA" fill="#FFFFFF"></path>
      </g>
  </g>
</svg>
